<svg width="128" height="128" viewBox="0 0 128 128" fill="none" xmlns="http://www.w3.org/2000/svg">
  <g transform="scale(6.2) translate(-2, -2)">
    <path stroke="white" stroke-width="2" fill="none" stroke-linecap="round" stroke-linejoin="round" d="M8 4m0 2a2 2 0 0 1 2 -2h8a2 2 0 0 1 2 2v8a2 2 0 0 1 -2 2h-8a2 2 0 0 1 -2 -2z" />
    <path stroke="white" stroke-width="2" fill="none" stroke-linecap="round" stroke-linejoin="round" d="M4 8m0 2a2 2 0 0 1 2 -2h8a2 2 0 0 1 2 2v8a2 2 0 0 1 -2 2h-8a2 2 0 0 1 -2 -2z" />
  </g>
</svg>
