<svg width="128" height="128" viewBox="0 0 128 128" fill="none" xmlns="http://www.w3.org/2000/svg">
  <g transform="scale(5.8) translate(-1, -1)">
    <path d="M12 3a3 3 0 0 0 -3 3v12a3 3 0 0 0 3 3" stroke="white" stroke-width="2" fill="none" stroke-linecap="round" stroke-linejoin="round" />
    <path d="M6 3a3 3 0 0 1 3 3v12a3 3 0 0 1 -3 3" stroke="white" stroke-width="2" fill="none" stroke-linecap="round" stroke-linejoin="round" />
    <path d="M13 7h7a1 1 0 0 1 1 1v8a1 1 0 0 1 -1 1h-7" stroke="white" stroke-width="2" fill="none" stroke-linecap="round" stroke-linejoin="round" />
    <path d="M5 7h-1a1 1 0 0 0 -1 1v8a1 1 0 0 0 1 1h1" stroke="white" stroke-width="2" fill="none" stroke-linecap="round" stroke-linejoin="round" />
    <path d="M17 12h.01" stroke="white" stroke-width="2" fill="none" stroke-linecap="round" stroke-linejoin="round" />
    <path d="M13 12h.01" stroke="white" stroke-width="2" fill="none" stroke-linecap="round" stroke-linejoin="round" />
  </g>
</svg>
