<svg width="128" height="128" viewBox="0 0 128 128" fill="none" xmlns="http://www.w3.org/2000/svg">
  <g transform="scale(5.4)">
    <path stroke="white" stroke-width="2" fill="none" stroke-linecap="round" stroke-linejoin="round" d="M5 18m-3 0a3 3 0 1 0 6 0a3 3 0 1 0 -6 0" />
    <path stroke="white" stroke-width="2" fill="none" stroke-linecap="round" stroke-linejoin="round" d="M19 18m-3 0a3 3 0 1 0 6 0a3 3 0 1 0 -6 0" />
    <path stroke="white" stroke-width="2" fill="none" stroke-linecap="round" stroke-linejoin="round" d="M12 19l0 -4l-3 -3l5 -4l2 3l3 0" />
    <path stroke="white" stroke-width="2" fill="none" stroke-linecap="round" stroke-linejoin="round" d="M17 5m-1 0a1 1 0 1 0 2 0a1 1 0 1 0 -2 0" />
  </g>
</svg>
