<svg xmlns="http://www.w3.org/2000/svg" width="650" height="270" viewBox="-20 -20 690 310">
  <style>
    :root {
      --jp-diagram-stroke: rgba(17, 24, 39, 0.45);
      --jp-diagram-box-fill: rgba(255, 255, 255, 0.92);
      --jp-diagram-text: rgba(17, 24, 39, 0.92);
      --jp-diagram-key: rgba(55, 65, 81, 0.92);
    }
    @media (prefers-color-scheme: dark) {
      :root {
        --jp-diagram-stroke: rgba(243, 244, 246, 0.45);
        --jp-diagram-box-fill: rgba(17, 24, 39, 0.72);
        --jp-diagram-text: rgba(243, 244, 246, 0.92);
        --jp-diagram-key: rgba(203, 213, 224, 0.92);
      }
    }
    .box { fill: var(--jp-diagram-box-fill); stroke: var(--jp-diagram-stroke); stroke-width: 1; }
    .arrow { fill: none; stroke: var(--jp-diagram-stroke); stroke-width: 1; }
    text { font-family: Helvetica, Arial, sans-serif; font-size: 16px; fill: var(--jp-diagram-text); }
    .label { text-anchor: middle; }
    .key { text-anchor: start; fill: var(--jp-diagram-key); }
    .val { text-anchor: start; fill: var(--jp-diagram-text); }
  </style>
  <!-- Site Code -->
  <rect x="0" y="0" width="280" height="60" rx="9" class="box"/>
  <text x="140" y="35" class="label">Site Code</text>
  <text x="310" y="35" class="key">Location:</text>
  <text x="380" y="35" class="val">my-jpulse-site/site/</text>
  <!-- Arrow 1 -->
  <path d="M140 60 L140 94 M136 88 L140 94 L144 88" class="arrow"/>
  <!-- Plugins Code -->
  <rect x="0" y="100" width="280" height="60" rx="9" class="box"/>
  <text x="140" y="135" class="label">Plugins Code</text>
  <text x="310" y="120" class="key">Install:</text>
  <text x="380" y="120" class="val">npm install @jpulse-net/plugin-[name]</text>
  <text x="310" y="145" class="key">Location:</text>
  <text x="380" y="145" class="val">my-jpulse-site/plugins/</text>
  <!-- Arrow 2 -->
  <path d="M140 160 L140 194 M136 188 L140 194 L144 188" class="arrow"/>
  <!-- jPulse Framework Code -->
  <rect x="0" y="200" width="280" height="60" rx="9" class="box"/>
  <text x="140" y="235" class="label">jPulse Framework Code</text>
  <text x="310" y="211" class="key">Install:</text>
  <text x="380" y="211" class="val">npx jpulse-install</text>
  <text x="310" y="236" class="key">Update:</text>
  <text x="380" y="236" class="val">npx jpulse update</text>
  <text x="310" y="261" class="key">Location:</text>
  <text x="380" y="261" class="val">my-jpulse-site/webapp/</text>
</svg>
